<svg width="467" height="113" viewBox="0 0 467 113" fill="none" xmlns="http://www.w3.org/2000/svg">
<path d="M42.4945 47.9946H75.9999V64.7473C75.9999 73.9996 68.4995 81.5 59.2472 81.5H42.4945V47.9946Z" fill="#1800AC"/>
<path d="M0 47.9946H33.5054V81.5H16.7527C7.50044 81.5 0 73.9996 0 64.7473V47.9946Z" fill="#1800AC"/>
<path d="M42.4945 5.5H59.2472C68.4995 5.5 75.9999 13.0004 75.9999 22.2527V39.0054H42.4945V5.5Z" fill="#1800AC"/>
<path d="M0 22.2527C0 13.0004 7.50044 5.5 16.7527 5.5H33.5054V39.0054H0V22.2527Z" fill="#1800AC"/>
<path d="M151.361 42.4573C155.706 43.2673 159.277 45.4396 162.075 48.9741C164.874 52.5086 166.273 56.5586 166.273 61.1241C166.273 65.2477 165.242 68.8927 163.18 72.0591C161.192 75.1518 158.283 77.5818 154.454 79.3491C150.625 81.1164 146.096 82 140.868 82H107.621V4.90276H139.432C144.66 4.90276 149.152 5.74958 152.908 7.44322C156.737 9.13685 159.609 11.4932 161.523 14.5123C163.511 17.5314 164.505 20.9555 164.505 24.7846C164.505 29.2764 163.29 33.0318 160.86 36.0509C158.504 39.07 155.338 41.2055 151.361 42.4573ZM123.085 36.7137H137.223C140.905 36.7137 143.74 35.9037 145.728 34.2837C147.716 32.59 148.71 30.1968 148.71 27.1041C148.71 24.0114 147.716 21.6182 145.728 19.9246C143.74 18.2309 140.905 17.3841 137.223 17.3841H123.085V36.7137ZM138.659 69.4082C142.415 69.4082 145.323 68.5246 147.385 66.7573C149.52 64.99 150.588 62.4864 150.588 59.2464C150.588 55.9327 149.484 53.3555 147.275 51.5146C145.065 49.6 142.083 48.6427 138.328 48.6427H123.085V69.4082H138.659ZM228.633 20.8082V82H213.059V74.2682C211.071 76.9191 208.457 79.0177 205.217 80.5641C202.05 82.0368 198.589 82.7732 194.834 82.7732C190.047 82.7732 185.813 81.7791 182.132 79.7909C178.45 77.7291 175.541 74.7468 173.406 70.8441C171.344 66.8677 170.313 62.155 170.313 56.7059V20.8082H185.777V54.4968C185.777 59.3568 186.992 63.1123 189.422 65.7632C191.852 68.3405 195.165 69.6291 199.362 69.6291C203.633 69.6291 206.984 68.3405 209.414 65.7632C211.844 63.1123 213.059 59.3568 213.059 54.4968V20.8082H228.633ZM232.182 51.1832C232.182 44.9977 233.397 39.5118 235.827 34.7255C238.331 29.9391 241.718 26.2573 245.989 23.68C250.26 21.1028 255.009 19.8141 260.238 19.8141C264.214 19.8141 268.006 20.6978 271.614 22.465C275.223 24.1587 278.094 26.4414 280.23 29.3132V0.263676H295.914V82H280.23V72.9427C278.315 75.9618 275.628 78.3918 272.167 80.2327C268.706 82.0736 264.693 82.9941 260.127 82.9941C254.973 82.9941 250.26 81.6686 245.989 79.0177C241.718 76.3668 238.331 72.6482 235.827 67.8618C233.397 63.0018 232.182 57.4423 232.182 51.1832ZM280.34 51.4041C280.34 47.6487 279.604 44.4455 278.131 41.7946C276.658 39.07 274.67 37.0082 272.167 35.6091C269.663 34.1364 266.975 33.4 264.103 33.4C261.232 33.4 258.581 34.0996 256.151 35.4987C253.721 36.8977 251.733 38.9596 250.186 41.6841C248.713 44.335 247.977 47.5014 247.977 51.1832C247.977 54.865 248.713 58.105 250.186 60.9032C251.733 63.6277 253.721 65.7264 256.151 67.1991C258.654 68.6718 261.305 69.4082 264.103 69.4082C266.975 69.4082 269.663 68.7086 272.167 67.3096C274.67 65.8368 276.658 63.775 278.131 61.1241C279.604 58.3996 280.34 55.1596 280.34 51.4041ZM327.254 19.8141C331.82 19.8141 335.833 20.7346 339.294 22.5755C342.755 24.3428 345.479 26.6623 347.467 29.5341V20.8082H363.041V82.4418C363.041 88.1118 361.9 93.1559 359.617 97.5741C357.335 102.066 353.91 105.6 349.345 108.178C344.78 110.829 339.257 112.154 332.777 112.154C324.088 112.154 316.945 110.129 311.349 106.079C305.826 102.029 302.696 96.5064 301.96 89.5109H317.313C318.123 92.3091 319.854 94.5182 322.505 96.1382C325.229 97.8318 328.506 98.6786 332.335 98.6786C336.827 98.6786 340.472 97.3164 343.27 94.5918C346.068 91.9409 347.467 87.8909 347.467 82.4418V72.9427C345.479 75.8145 342.718 78.2077 339.183 80.1223C335.722 82.0368 331.746 82.9941 327.254 82.9941C322.1 82.9941 317.387 81.6686 313.116 79.0177C308.845 76.3668 305.458 72.6482 302.954 67.8618C300.524 63.0018 299.309 57.4423 299.309 51.1832C299.309 44.9977 300.524 39.5118 302.954 34.7255C305.458 29.9391 308.808 26.2573 313.005 23.68C317.276 21.1028 322.026 19.8141 327.254 19.8141ZM347.467 51.4041C347.467 47.6487 346.731 44.4455 345.258 41.7946C343.785 39.07 341.797 37.0082 339.294 35.6091C336.79 34.1364 334.102 33.4 331.23 33.4C328.359 33.4 325.708 34.0996 323.278 35.4987C320.848 36.8977 318.86 38.9596 317.313 41.6841C315.84 44.335 315.104 47.5014 315.104 51.1832C315.104 54.865 315.84 58.105 317.313 60.9032C318.86 63.6277 320.848 65.7264 323.278 67.1991C325.781 68.6718 328.432 69.4082 331.23 69.4082C334.102 69.4082 336.79 68.7086 339.294 67.3096C341.797 65.8368 343.785 63.775 345.258 61.1241C346.731 58.3996 347.467 55.1596 347.467 51.4041ZM427.297 50.0787C427.297 52.2877 427.149 54.2759 426.855 56.0432H382.121C382.489 60.4614 384.035 63.9223 386.76 66.4259C389.484 68.9296 392.835 70.1814 396.811 70.1814C402.555 70.1814 406.642 67.7146 409.072 62.7809H425.75C423.983 68.6718 420.596 73.5318 415.588 77.3609C410.581 81.1164 404.432 82.9941 397.142 82.9941C391.252 82.9941 385.95 81.7055 381.237 79.1282C376.598 76.4773 372.953 72.7586 370.302 67.9723C367.725 63.1859 366.436 57.6632 366.436 51.4041C366.436 45.0714 367.725 39.5118 370.302 34.7255C372.879 29.9391 376.487 26.2573 381.127 23.68C385.766 21.1028 391.104 19.8141 397.142 19.8141C402.96 19.8141 408.151 21.0659 412.717 23.5696C417.356 26.0732 420.927 29.6446 423.431 34.2837C426.008 38.8491 427.297 44.1141 427.297 50.0787ZM411.281 45.6605C411.207 41.6841 409.771 38.5177 406.973 36.1614C404.175 33.7314 400.751 32.5164 396.701 32.5164C392.872 32.5164 389.632 33.6946 386.981 36.0509C384.403 38.3337 382.82 41.5368 382.231 45.6605H411.281ZM448.856 33.5105V63.1123C448.856 65.1741 449.334 66.6836 450.292 67.6409C451.323 68.5246 453.016 68.9664 455.373 68.9664H462.552V82H452.832C439.799 82 433.282 75.6673 433.282 63.0018V33.5105H425.992V20.8082H433.282V5.67594H448.856V20.8082H462.552V33.5105H448.856Z" fill="black"/>
</svg>
