<svg width="111" height="17" viewBox="0 0 111 17" fill="none" xmlns="http://www.w3.org/2000/svg">
    <path d="M8.5144 9.47253H15.2277V12.8292C15.2277 14.683 13.7249 16.1858 11.871 16.1858H8.5144V9.47253Z" fill="#1800AC"/>
    <path d="M0 9.47253H6.71328V16.1858H3.35664C1.50282 16.1858 0 14.683 0 12.8292V9.47253Z" fill="#1800AC"/>
    <path d="M8.5144 0.95813H11.871C13.7249 0.95813 15.2277 2.46095 15.2277 4.31477V7.67141H8.5144V0.95813Z" fill="#1800AC"/>
    <path d="M0 4.31477C0 2.46095 1.50282 0.95813 3.35664 0.95813H6.71328V7.67141H0V4.31477Z" fill="#1800AC"/>
    <path d="M26.897 16.7268C25.82 16.7268 24.8462 16.5424 23.9757 16.1735C23.12 15.8047 22.4413 15.2735 21.9397 14.5801C21.438 13.8867 21.1798 13.0678 21.1651 12.1235H24.4847C24.529 12.758 24.7503 13.2596 25.1487 13.6285C25.5618 13.9973 26.1224 14.1817 26.8306 14.1817C27.5536 14.1817 28.1216 14.0121 28.5347 13.6727C28.9478 13.3186 29.1544 12.8612 29.1544 12.3006C29.1544 11.8432 29.0142 11.467 28.7339 11.1719C28.4536 10.8768 28.0995 10.6481 27.6716 10.4858C27.2585 10.3088 26.6831 10.117 25.9454 9.91043C24.9421 9.61535 24.1233 9.32764 23.4888 9.04731C22.8692 8.75223 22.3306 8.31699 21.8733 7.74158C21.4306 7.15141 21.2093 6.36945 21.2093 5.39568C21.2093 4.48092 21.438 3.6842 21.8954 3.00551C22.3528 2.32682 22.9946 1.81043 23.8208 1.45633C24.647 1.08748 25.5913 0.903055 26.6536 0.903055C28.247 0.903055 29.538 1.29404 30.5265 2.076C31.5298 2.84322 32.0831 3.92027 32.1864 5.30715H28.7782C28.7487 4.776 28.52 4.34076 28.0921 4.00141C27.679 3.64732 27.1257 3.47027 26.4323 3.47027C25.8274 3.47027 25.3405 3.62518 24.9716 3.93502C24.6175 4.24486 24.4405 4.69486 24.4405 5.28502C24.4405 5.69813 24.5733 6.04486 24.8388 6.32518C25.1192 6.59076 25.4585 6.81207 25.8569 6.98912C26.27 7.15141 26.8454 7.34322 27.5831 7.56453C28.5864 7.85961 29.4052 8.15469 30.0397 8.44977C30.6741 8.74485 31.22 9.18748 31.6774 9.77764C32.1347 10.3678 32.3634 11.1424 32.3634 12.1014C32.3634 12.9276 32.1495 13.6949 31.7216 14.403C31.2937 15.1112 30.6667 15.6793 29.8405 16.1071C29.0142 16.5203 28.0331 16.7268 26.897 16.7268ZM32.7037 10.3973C32.7037 9.15797 32.9471 8.05879 33.434 7.09977C33.9357 6.14076 34.607 5.40305 35.4479 4.88666C36.3037 4.37027 37.2553 4.11207 38.3029 4.11207C39.2176 4.11207 40.0143 4.2965 40.693 4.66535C41.3865 5.0342 41.9397 5.49895 42.3529 6.05961V4.31125H45.4734V16.5719H42.3529V14.7793C41.9545 15.3547 41.4012 15.8342 40.693 16.2178C39.9996 16.5867 39.1955 16.7711 38.2807 16.7711C37.2479 16.7711 36.3037 16.5055 35.4479 15.9744C34.607 15.4432 33.9357 14.6981 33.434 13.7391C32.9471 12.7653 32.7037 11.6514 32.7037 10.3973ZM42.3529 10.4416C42.3529 9.68912 42.2053 9.04731 41.9102 8.51617C41.6152 7.97026 41.2168 7.55715 40.7152 7.27682C40.2135 6.98174 39.675 6.8342 39.0996 6.8342C38.5242 6.8342 37.993 6.97436 37.5061 7.25469C37.0193 7.53502 36.6209 7.94813 36.3111 8.49403C36.016 9.02518 35.8684 9.65961 35.8684 10.3973C35.8684 11.135 36.016 11.7842 36.3111 12.3449C36.6209 12.8908 37.0193 13.3112 37.5061 13.6063C38.0078 13.9014 38.5389 14.0489 39.0996 14.0489C39.675 14.0489 40.2135 13.9088 40.7152 13.6285C41.2168 13.3334 41.6152 12.9203 41.9102 12.3891C42.2053 11.8432 42.3529 11.194 42.3529 10.4416ZM53.7445 4.1342C55.2052 4.1342 56.3855 4.59895 57.2855 5.52846C58.1855 6.44322 58.6355 7.72682 58.6355 9.37928V16.5719H55.5371V9.79977C55.5371 8.826 55.2937 8.08092 54.8068 7.56453C54.3199 7.03338 53.656 6.76781 52.815 6.76781C51.9593 6.76781 51.2806 7.03338 50.7789 7.56453C50.2921 8.08092 50.0486 8.826 50.0486 9.79977V16.5719H46.9503V4.31125H50.0486V5.8383C50.4617 5.30715 50.9855 4.89404 51.6199 4.59895C52.2691 4.28912 52.9773 4.1342 53.7445 4.1342ZM59.236 10.3973C59.236 9.15797 59.4794 8.05879 59.9663 7.09977C60.4679 6.14076 61.1466 5.40305 62.0024 4.88666C62.8581 4.37027 63.8097 4.11207 64.8573 4.11207C65.654 4.11207 66.4138 4.28912 67.1368 4.64322C67.8597 4.98256 68.4352 5.43994 68.863 6.01535V0.194859H72.0056V16.5719H68.863V14.7571C68.4794 15.3621 67.9409 15.8489 67.2475 16.2178C66.554 16.5867 65.7499 16.7711 64.8352 16.7711C63.8024 16.7711 62.8581 16.5055 62.0024 15.9744C61.1466 15.4432 60.4679 14.6981 59.9663 13.7391C59.4794 12.7653 59.236 11.6514 59.236 10.3973ZM68.8852 10.4416C68.8852 9.68912 68.7376 9.04731 68.4425 8.51617C68.1475 7.97026 67.7491 7.55715 67.2475 7.27682C66.7458 6.98174 66.2073 6.8342 65.6319 6.8342C65.0565 6.8342 64.5253 6.97436 64.0384 7.25469C63.5516 7.53502 63.1532 7.94813 62.8434 8.49403C62.5483 9.02518 62.4007 9.65961 62.4007 10.3973C62.4007 11.135 62.5483 11.7842 62.8434 12.3449C63.1532 12.8908 63.5516 13.3112 64.0384 13.6063C64.5401 13.9014 65.0712 14.0489 65.6319 14.0489C66.2073 14.0489 66.7458 13.9088 67.2475 13.6285C67.7491 13.3334 68.1475 12.9203 68.4425 12.3891C68.7376 11.8432 68.8852 11.194 68.8852 10.4416ZM76.5809 6.10387C76.9793 5.51371 77.5252 5.0342 78.2186 4.66535C78.9268 4.2965 79.7309 4.11207 80.6309 4.11207C81.6785 4.11207 82.6227 4.37027 83.4637 4.88666C84.3194 5.40305 84.9907 6.14076 85.4776 7.09977C85.9793 8.04403 86.2301 9.14321 86.2301 10.3973C86.2301 11.6514 85.9793 12.7653 85.4776 13.7391C84.9907 14.6981 84.3194 15.4432 83.4637 15.9744C82.6227 16.5055 81.6785 16.7711 80.6309 16.7711C79.7162 16.7711 78.9121 16.594 78.2186 16.2399C77.5399 15.8711 76.994 15.3989 76.5809 14.8235V16.5719H73.4826V0.194859H76.5809V6.10387ZM83.0653 10.3973C83.0653 9.65961 82.9104 9.02518 82.6006 8.49403C82.3055 7.94813 81.9071 7.53502 81.4055 7.25469C80.9186 6.97436 80.3875 6.8342 79.8121 6.8342C79.2514 6.8342 78.7203 6.98174 78.2186 7.27682C77.7317 7.55715 77.3334 7.97026 77.0235 8.51617C76.7285 9.06207 76.5809 9.70387 76.5809 10.4416C76.5809 11.1793 76.7285 11.8211 77.0235 12.367C77.3334 12.9129 77.7317 13.3334 78.2186 13.6285C78.7203 13.9088 79.2514 14.0489 79.8121 14.0489C80.3875 14.0489 80.9186 13.9014 81.4055 13.6063C81.9071 13.3112 82.3055 12.8908 82.6006 12.3449C82.9104 11.799 83.0653 11.1498 83.0653 10.3973ZM92.3767 16.7711C91.1963 16.7711 90.134 16.5129 89.1898 15.9965C88.2455 15.4653 87.5004 14.7203 86.9545 13.7612C86.4234 12.8022 86.1578 11.6957 86.1578 10.4416C86.1578 9.18748 86.4308 8.08092 86.9767 7.1219C87.5373 6.16289 88.2972 5.42518 89.2562 4.90879C90.2152 4.37764 91.2849 4.11207 92.4652 4.11207C93.6455 4.11207 94.7152 4.37764 95.6742 4.90879C96.6332 5.42518 97.3857 6.16289 97.9316 7.1219C98.4922 8.08092 98.7726 9.18748 98.7726 10.4416C98.7726 11.6957 98.4849 12.8022 97.9094 13.7612C97.3488 14.7203 96.5816 15.4653 95.6078 15.9965C94.6488 16.5129 93.5717 16.7711 92.3767 16.7711ZM92.3767 14.0711C92.9373 14.0711 93.4611 13.9383 93.948 13.6727C94.4496 13.3924 94.848 12.9793 95.1431 12.4334C95.4381 11.8875 95.5857 11.2235 95.5857 10.4416C95.5857 9.276 95.2758 8.38338 94.6562 7.76371C94.0513 7.12928 93.3062 6.81207 92.4209 6.81207C91.5357 6.81207 90.7906 7.12928 90.1857 7.76371C89.5955 8.38338 89.3004 9.276 89.3004 10.4416C89.3004 11.6071 89.5881 12.5071 90.1636 13.1416C90.7537 13.7612 91.4914 14.0711 92.3767 14.0711ZM106.268 16.5719L103.745 12.7653L101.51 16.5719H98.1904L102.196 10.4194L98.1462 4.31125H101.643L104.144 8.09567L106.401 4.31125H109.721L105.693 10.4194L109.765 16.5719H106.268Z" fill="black"/>
</svg>
